[Header]
FileType HTR
DataType HTRS
FileVersion 1
NumSegments 64
NumFrames 3
DataFrameRate 24
EulerRotationOrder ZYX
CalibrationUnits mm
RotationUnits Degrees
GlobalAxisofGravity Y
BoneLengthAxis Y
ScaleFactor 1.0
[SegmentNames&Hierarchy]
Hips	GLOBAL
Spine	Hips
Spine1	Spine
Spine2	Spine1
Neck	Spine2
Head	Neck
LeftEye	Head
RightEye	Head
LeftShoulder	Spine2
LeftArm	LeftShoulder
LeftForeArm	LeftArm
LeftHand	LeftForeArm
LeftHandThumb1	LeftHand
LeftHandThumb2	LeftHandThumb1
LeftHandThumb3	LeftHandThumb2
LeftHandThumb4	LeftHandThumb3
LeftHandIndex1	LeftHand
LeftHandIndex2	LeftHandIndex1
LeftHandIndex3	LeftHandIndex2
LeftHandIndex4	LeftHandIndex3
LeftHandMiddle1	LeftHand
LeftHandMiddle2	LeftHandMiddle1
LeftHandMiddle3	LeftHandMiddle2
LeftHandMiddle4	LeftHandMiddle3
LeftHandRing1	LeftHand
LeftHandRing2	LeftHandRing1
LeftHandRing3	LeftHandRing2
LeftHandRing4	LeftHandRing3
LeftHandPinky1	LeftHand
LeftHandPinky2	LeftHandPinky1
LeftHandPinky3	LeftHandPinky2
LeftHandPinky4	LeftHandPinky3
RightShoulder	Spine2
RightArm	RightShoulder
RightForeArm	RightArm
RightHand	RightForeArm
RightHandPinky1	RightHand
RightHandPinky2	RightHandPinky1
RightHandPinky3	RightHandPinky2
RightHandPinky4	RightHandPinky3
RightHandRing1	RightHand
RightHandRing2	RightHandRing1
RightHandRing3	RightHandRing2
RightHandRing4	RightHandRing3
RightHandMiddle1	RightHand
RightHandMiddle2	RightHandMiddle1
RightHandMiddle3	RightHandMiddle2
RightHandMiddle4	RightHandMiddle3
RightHandIndex1	RightHand
RightHandIndex2	RightHandIndex1
RightHandIndex3	RightHandIndex2
RightHandIndex4	RightHandIndex3
RightHandThumb1	RightHand
RightHandThumb2	RightHandThumb1
RightHandThumb3	RightHandThumb2
RightHandThumb4	RightHandThumb3
LeftUpLeg	Hips
LeftLeg	LeftUpLeg
LeftFoot	LeftLeg
LeftToeBase	LeftFoot
RightUpLeg	Hips
RightLeg	RightUpLeg
RightFoot	RightLeg
RightToeBase	RightFoot
[BasePosition]
Hips	0	0	0	0	0	0	1
Spine	0	0	0	0	0	0	1
Spine1	0	0	0	0	0	0	1
Spine2	0	0	0	0	0	0	1
Neck	0	0	0	0	0	0	1
Head	0	0	0	0	0	0	1
LeftEye	0	0	0	0	0	0	1
RightEye	0	0	0	0	0	0	1
LeftShoulder	0	0	0	0	0	0	1
LeftArm	0	0	0	0	0	0	1
LeftForeArm	0	0	0	0	0	0	1
LeftHand	0	0	0	0	0	0	1
LeftHandThumb1	0	0	0	0	0	0	1
LeftHandThumb2	0	0	0	0	0	0	1
LeftHandThumb3	0	0	0	0	0	0	1
LeftHandThumb4	0	0	0	0	0	0	1
LeftHandIndex1	0	0	0	0	0	0	1
LeftHandIndex2	0	0	0	0	0	0	1
LeftHandIndex3	0	0	0	0	0	0	1
LeftHandIndex4	0	0	0	0	0	0	1
LeftHandMiddle1	0	0	0	0	0	0	1
LeftHandMiddle2	0	0	0	0	0	0	1
LeftHandMiddle3	0	0	0	0	0	0	1
LeftHandMiddle4	0	0	0	0	0	0	1
LeftHandRing1	0	0	0	0	0	0	1
LeftHandRing2	0	0	0	0	0	0	1
LeftHandRing3	0	0	0	0	0	0	1
LeftHandRing4	0	0	0	0	0	0	1
LeftHandPinky1	0	0	0	0	0	0	1
LeftHandPinky2	0	0	0	0	0	0	1
LeftHandPinky3	0	0	0	0	0	0	1
LeftHandPinky4	0	0	0	0	0	0	1
RightShoulder	0	0	0	0	0	0	1
RightArm	0	0	0	0	0	0	1
RightForeArm	0	0	0	0	0	0	1
RightHand	0	0	0	0	0	0	1
RightHandPinky1	0	0	0	0	0	0	1
RightHandPinky2	0	0	0	0	0	0	1
RightHandPinky3	0	0	0	0	0	0	1
RightHandPinky4	0	0	0	0	0	0	1
RightHandRing1	0	0	0	0	0	0	1
RightHandRing2	0	0	0	0	0	0	1
RightHandRing3	0	0	0	0	0	0	1
RightHandRing4	0	0	0	0	0	0	1
RightHandMiddle1	0	0	0	0	0	0	1
RightHandMiddle2	0	0	0	0	0	0	1
RightHandMiddle3	0	0	0	0	0	0	1
RightHandMiddle4	0	0	0	0	0	0	1
RightHandIndex1	0	0	0	0	0	0	1
RightHandIndex2	0	0	0	0	0	0	1
RightHandIndex3	0	0	0	0	0	0	1
RightHandIndex4	0	0	0	0	0	0	1
RightHandThumb1	0	0	0	0	0	0	1
RightHandThumb2	0	0	0	0	0	0	1
RightHandThumb3	0	0	0	0	0	0	1
RightHandThumb4	0	0	0	0	0	0	1
LeftUpLeg	0	0	0	0	0	0	1
LeftLeg	0	0	0	0	0	0	1
LeftFoot	0	0	0	0	0	0	1
LeftToeBase	0	0	0	0	0	0	1
RightUpLeg	0	0	0	0	0	0	1
RightLeg	0	0	0	0	0	0	1
RightFoot	0	0	0	0	0	0	1
RightToeBase	0	0	0	0	0	0	1
[Hips]
28	1.84349823	619.0056152	432.0916748	23.00280952	1.405958414	-0.6022976041	1.0
29	1.687418461	619.6576538	420.4129639	17.58514786	1.398365259	-0.6477936506	1.0
30	1.537826657	622.2260742	405.7735901	12.4196949	1.373924851	-0.7098236084	1.0
[Spine]
28	0	101.8159943	1.315000057	21.3976059	-1.058658242	1.103960752	1.0
29	0	101.8159943	1.315000057	17.27853584	-1.137162089	1.040157676	1.0
30	0	101.8159943	1.315000057	12.76082993	-1.189100027	0.9886706471	1.0
[Spine1]
28	0	100.8349991	-10.00800037	10.41888618	-4.89513659e-05	4.633721255e-05	1.0
29	0	100.8349991	-10.00800037	8.433444977	-4.728301792e-05	4.803821503e-05	1.0
30	0	100.8349991	-10.00800037	6.150132179	-4.526934208e-05	4.989560694e-05	1.0
[Spine2]
28	0	91	-13.73399925	12.54328537	-5.314904072e-08	3.121524514e-07	1.0
29	0	91	-13.73399925	10.13084221	-3.864110454e-08	3.142575338e-07	1.0
30	0	91	-13.73399925	7.446643829	-2.238253849e-08	3.155768127e-07	1.0
[Neck]
28	0	166.7169952	-25.16200066	-5.310033321	3.437447731e-07	3.227108891e-07	1.0
29	0	166.7169952	-25.16200066	-3.992693186	3.354728619e-07	3.312967181e-07	1.0
30	0	166.7169952	-25.16200066	-2.816961765	3.27865223e-07	3.387355321e-07	1.0
[Head]
28	0	96.17900085	16.84999847	22.82277679	0.1762959361	-0.1163353845	1.0
29	0	96.17900085	16.84999847	19.15125084	0.1590854973	-0.08288258314	1.0
30	0	96.17900085	16.84999847	14.40234184	0.1272159219	-0.05404551327	1.0
[LeftEye]
28	30.6760006	64.09500122	92.83599854	0	0	0	1.0
29	30.6760006	64.09500122	92.83599854	0	0	0	1.0
30	30.6760006	64.09500122	92.83599854	0	0	0	1.0
[RightEye]
28	-30.6760006	64.09500122	92.83499908	0	0	0	1.0
29	-30.6760006	64.09500122	92.83499908	0	0	0	1.0
30	-30.6760006	64.09500122	92.83499908	0	0	0	1.0
[LeftShoulder]
28	45.70400238	109.4599991	-26.28000069	-7.693405628	-17.84882355	28.24957657	1.0
29	45.70400238	109.4599991	-26.28000069	-4.592169285	-15.20277786	22.47282028	1.0
30	45.70400238	109.4599991	-26.28000069	-2.277581215	-11.82731438	16.41972542	1.0
[LeftArm]
28	105.923996	-5.24600029	-22.32099915	-51.63718033	-27.95237923	5.475026131	1.0
29	105.923996	-5.24600029	-22.32099915	-42.01331329	-25.89152718	-1.78326571	1.0
30	105.923996	-5.24600029	-22.32099915	-30.81647682	-20.8747921	-6.091047287	1.0
[LeftForeArm]
28	278.414978	-0.0009999999311	0	1.072908617e-06	-0.08503302932	-0.0002012699988	1.0
29	278.414978	-0.0009999999311	0	-1.463851049e-06	-0.1712672114	-0.0002061021951	1.0
30	278.414978	-0.0009999999311	0	-1.857647362e-06	-0.2614687383	-0.0002057978709	1.0
[LeftHand]
28	283.2879944	0	0	6.969373703	-3.168457031	-26.04210854	1.0
29	283.2879944	0	0	4.635437965	-3.558888197	-20.56483841	1.0
30	283.2879944	0	0	1.765635967	-3.710600376	-14.23057747	1.0
[LeftHandThumb1]
28	24.6609993	-15.75	26.8239994	9.709690094	3.659093857	-10.65585709	1.0
29	24.6609993	-15.75	26.8239994	6.854138851	1.479100108	-7.794145107	1.0
30	24.6609993	-15.75	26.8239994	3.553604126	-0.534532249	-4.49924612	1.0
[LeftHandThumb2]
28	32.29800034	-18.64699936	18.64699936	44.21126175	44.9822998	29.00439835	1.0
29	32.29800034	-18.64699936	18.64699936	34.27235413	39.86627579	21.12439728	1.0
30	32.29800034	-18.64699936	18.64699936	25.98271942	34.00646973	15.16703987	1.0
[LeftHandThumb3]
28	26.52600098	-15.31499958	15.31499958	5.798843384	13.49760246	18.00836563	1.0
29	26.52600098	-15.31499958	15.31499958	3.035974026	11.11886787	16.7984314	1.0
30	26.52600098	-15.31499958	15.31499958	0.523162961	8.974117279	15.80072021	1.0
[LeftHandThumb4]
28	19.54599953	-11.28499985	11.28499985	0	0	0	1.0
29	19.54599953	-11.28499985	11.28499985	0	0	0	1.0
30	19.54599953	-11.28499985	11.28499985	0	0	0	1.0
[LeftHandIndex1]
28	91.09299469	-5.170999527	22.60099792	-4.223632336	13.53773975	-55.06519699	1.0
29	91.09299469	-5.170999527	22.60099792	-3.188750505	10.15316486	-44.32873917	1.0
30	91.09299469	-5.170999527	22.60099792	-2.215835333	7.319542885	-33.44638062	1.0
[LeftHandIndex2]
28	36.76399994	0	0	-0.5170416236	2.40267539	-24.28542709	1.0
29	36.76399994	0	0	-0.3375092149	1.957025528	-19.56819725	1.0
30	36.76399994	0	0	-0.1993549466	1.467063189	-14.56948853	1.0
[LeftHandIndex3]
28	28.83100128	0	0	-0.3630962372	2.027516127	-20.30393791	1.0
29	28.83100128	0	0	-0.2164883167	1.575826645	-15.64379215	1.0
30	28.83100128	0	0	-0.1188331991	1.123540163	-11.10135841	1.0
[LeftHandIndex4]
28	23.92700005	0	0	0	0	0	1.0
29	23.92700005	0	0	0	0	0	1.0
30	23.92700005	0	0	0	0	0	1.0
[LeftHandMiddle1]
28	95.33399963	0	0	-4.62685585	5.481873989	-57.2140007	1.0
29	95.33399963	0	0	-3.52161932	4.630275249	-46.71617126	1.0
30	95.33399963	0	0	-2.448979378	3.834412336	-35.49262619	1.0
[LeftHandMiddle2]
28	36.98199844	0	0	-0.8396067619	3.016595602	-31.10069275	1.0
29	36.98199844	0	0	-0.5437712669	2.461016417	-24.91567039	1.0
30	36.98199844	0	0	-0.3210061193	1.851466894	-18.53599548	1.0
[LeftHandMiddle3]
28	29.50900078	0	0	-0.2329668105	1.633552551	-16.23227882	1.0
29	29.50900078	0	0	-0.1471770406	1.303306818	-12.8853035	1.0
30	29.50900078	0	0	-0.08767861128	0.9830600023	-9.690130234	1.0
[LeftHandMiddle4]
28	28.3390007	0	0	0	0	0	1.0
29	28.3390007	0	0	0	0	0	1.0
30	28.3390007	0	0	0	0	0	1.0
[LeftHandRing1]
28	91.04499817	-0.4390000105	-18.65100098	-4.082055569	2.831606627	-51.71051407	1.0
29	91.04499817	-0.4390000105	-18.65100098	-3.060702562	3.883077621	-42.11478806	1.0
30	91.04499817	-0.4390000105	-18.65100098	-2.119596958	4.241744995	-31.98191452	1.0
[LeftHandRing2]
28	31.54000092	0	0	-0.3593504727	2.01736784	-20.19797897	1.0
29	31.54000092	0	0	-0.2320451587	1.630342484	-16.19976425	1.0
30	31.54000092	0	0	-0.1380727142	1.228048801	-12.14546871	1.0
[LeftHandRing3]
28	29.37700081	0	0	-0.2686193883	1.751243353	-17.4387989	1.0
29	29.37700081	0	0	-0.1674052924	1.388746619	-13.74658394	1.0
30	29.37700081	0	0	-0.09748100489	1.031636119	-10.17632103	1.0
[LeftHandRing4]
28	26.47500038	0	0	0	0	0	1.0
29	26.47500038	0	0	0	0	0	1.0
30	26.47500038	0	0	0	0	0	1.0
[LeftHandPinky1]
28	80.77799988	-4.887000084	-38.06099701	-3.649830103	-2.723659277	-46.96792221	1.0
29	80.77799988	-4.887000084	-38.06099701	-2.618985176	0.5833212733	-37.33510208	1.0
30	80.77799988	-4.887000084	-38.06099701	-1.782075644	2.431039095	-28.0385704	1.0
[LeftHandPinky2]
28	36	0	0	-0.08571356535	0.9972740412	-9.824356079	1.0
29	36	0	0	-0.06807098538	0.889437139	-8.752943039	1.0
30	36	0	0	-0.04495186359	0.7099240422	-6.978488922	1.0
[LeftHandPinky3]
28	21.14200211	0	0	-0.5240024328	2.418059111	-24.45108032	1.0
29	21.14200211	0	0	-0.2820489109	1.793444872	-17.8734951	1.0
30	21.14200211	0	0	-0.147437796	1.24746871	-12.3482666	1.0
[LeftHandPinky4]
28	19.75699997	0	0	0	0	0	1.0
29	19.75699997	0	0	0	0	0	1.0
30	19.75699997	0	0	0	0	0	1.0
[RightShoulder]
28	-45.70000076	109.4620056	-26.28000069	-7.693430424	17.84881783	-28.24958229	1.0
29	-45.70000076	109.4620056	-26.28000069	-4.592220306	15.20275784	-22.47282219	1.0
30	-45.70000076	109.4620056	-26.28000069	-2.277612448	11.82729912	-16.41972542	1.0
[RightArm]
28	-105.9280014	-5.248000145	-22.32099915	-51.63708878	27.95258904	-5.474798679	1.0
29	-105.9280014	-5.248000145	-22.32099915	-42.01319122	25.89168167	1.783532858	1.0
30	-105.9280014	-5.248000145	-22.32099915	-30.81637192	20.87489891	6.091313362	1.0
[RightForeArm]
28	-278.414978	0	0	-6.249991657e-06	0.08481869102	1.750033675e-06	1.0
29	-278.414978	0	0	-1.406775255e-06	0.1710879952	5.869482266e-06	1.0
30	-278.414978	0	0	5.775393106e-07	0.2612811923	2.886694347e-06	1.0
[RightHand]
28	-283.2879944	0	0.0009999999311	8.189295769	2.928506136	26.76427078	1.0
29	-283.2879944	0	0.0009999999311	5.861007214	3.348469257	21.29649162	1.0
30	-283.2879944	0	0.0009999999311	2.993930101	3.537125349	14.97144127	1.0
[RightHandPinky1]
28	-80.76699829	-4.885000229	-38.06000137	-3.164485216	3.678271055	46.18186188	1.0
29	-80.76699829	-4.885000229	-38.06000137	-2.282265902	0.2396255285	36.5912056	1.0
30	-80.76699829	-4.885000229	-38.06000137	-1.561400175	-1.761621118	27.32901573	1.0
[RightHandPinky2]
28	-36	0	0.0009999999311	-0.06802767515	-0.7916651964	9.842784882	1.0
29	-36	0	0.0009999999311	-0.05400263146	-0.7058828473	8.769429207	1.0
30	-36	0	0.0009999999311	-0.0356278196	-0.5630999804	6.991683006	1.0
[RightHandPinky3]
28	-21.14200211	0	0	-0.4174592793	-1.923153639	24.49224281	1.0
29	-21.14200211	0	0	-0.2247282267	-1.426463366	17.90541649	1.0
30	-21.14200211	0	0	-0.1174814999	-0.9922295213	12.37093639	1.0
[RightHandPinky4]
28	-19.75699997	0	0	0	0	0	1.0
29	-19.75699997	0	0	0	0	0	1.0
30	-19.75699997	0	0	0	0	0	1.0
[RightHandRing1]
28	-91.03599548	-0.4390000105	-18.65100098	-3.514073849	-1.819790721	50.98936462	1.0
29	-91.03599548	-0.4390000105	-18.65100098	-2.653346777	-2.989630461	41.41542053	1.0
30	-91.03599548	-0.4390000105	-18.65100098	-1.850005865	-3.506572008	31.29812241	1.0
[RightHandRing2]
28	-31.54000092	0	0	-0.2863129377	-1.604535699	20.23343658	1.0
29	-31.54000092	0	0	-0.1848944277	-1.296736836	16.22908592	1.0
30	-31.54000092	0	0	-0.1100232154	-0.9767761827	12.16786003	1.0
[RightHandRing3]
28	-29.37700081	0	0	-0.2140211165	-1.392885447	17.47007561	1.0
29	-29.37700081	0	0	-0.1333962828	-1.104598522	13.77181816	1.0
30	-29.37700081	0	0	-0.07767830789	-0.8205658793	10.19526672	1.0
[RightHandRing4]
28	-26.47500038	0	0	0	0	0	1.0
29	-26.47500038	0	0	0	0	0	1.0
30	-26.47500038	0	0	0	0	0	1.0
[RightHandMiddle1]
28	-95.32500458	0	0	-3.96019721	-4.414589882	56.5129776	1.0
29	-95.32500458	0	0	-3.040473223	-3.676628828	46.02128601	1.0
30	-95.32500458	0	0	-2.130439281	-3.045785666	34.79748154	1.0
[RightHandMiddle2]
28	-36.98199844	0	0	-0.6687573195	-2.399031878	31.14907837	1.0
29	-36.98199844	0	0	-0.4332081079	-1.957341313	24.95744133	1.0
30	-36.98199844	0	0	-0.255761683	-1.472592354	18.56851578	1.0
[RightHandMiddle3]
28	-29.50900078	0	0	-0.1856384426	-1.30129385	16.26164627	1.0
29	-29.50900078	0	0	-0.1172788218	-1.038636804	12.90912247	1.0
30	-29.50900078	0	0	-0.06987147778	-0.7839332223	9.70826149	1.0
[RightHandMiddle4]
28	-28.3390007	0	0.0009999999311	0	0	0	1.0
29	-28.3390007	0	0.0009999999311	0	0	0	1.0
30	-28.3390007	0	0.0009999999311	0	0	0	1.0
[RightHandIndex1]
28	-91.08300018	-5.167999744	22.60099792	-3.608781099	-12.49049664	54.44920349	1.0
29	-91.08300018	-5.167999744	22.60099792	-2.755097628	-9.229486465	43.71025085	1.0
30	-91.08300018	-5.167999744	22.60099792	-1.930558443	-6.561449528	32.80628967	1.0
[RightHandIndex2]
28	-36.76399994	0	0	-0.4119004905	-1.91093266	24.32640457	1.0
29	-36.76399994	0	0	-0.2689118087	-1.55653441	19.60273743	1.0
30	-36.76399994	0	0	-0.158847183	-1.166860223	14.59592628	1.0
[RightHandIndex3]
28	-28.83100128	0	0	-0.2892838418	-1.612575054	20.33957863	1.0
29	-28.83100128	0	0	-0.172501862	-1.253394485	15.67218399	1.0
30	-28.83100128	0	0	-0.09469637275	-0.8936624527	11.1218977	1.0
[RightHandIndex4]
28	-23.92700005	0	0	0	0	0	1.0
29	-23.92700005	0	0	0	0	0	1.0
30	-23.92700005	0	0	0	0	0	1.0
[RightHandThumb1]
28	-24.64799881	-15.72700024	26.82600021	8.54928875	-1.690894961	11.59065723	1.0
29	-24.64799881	-15.72700024	26.82600021	5.740543842	0.509290278	8.603056908	1.0
30	-24.64799881	-15.72700024	26.82600021	2.474461079	2.538897276	5.167768478	1.0
[RightHandThumb2]
28	-32.29800034	-18.64699936	18.64699936	45.82409668	-46.64047241	-30.80338097	1.0
29	-32.29800034	-18.64699936	18.64699936	35.52580643	-41.57471466	-22.60784721	1.0
30	-32.29800034	-18.64699936	18.64699936	27.00934219	-35.72320557	-16.46780586	1.0
[RightHandThumb3]
28	-26.52600098	-15.31399918	15.31399918	9.631864548	-18.66088104	-20.24176216	1.0
29	-26.52600098	-15.31399918	15.31399918	6.717375278	-16.36484528	-18.78675461	1.0
30	-26.52600098	-15.31399918	15.31399918	4.088127136	-14.28376484	-17.57102776	1.0
[RightHandThumb4]
28	-19.54599953	-11.28499985	11.28499985	0	0	0	1.0
29	-19.54599953	-11.28499985	11.28499985	0	0	0	1.0
30	-19.54599953	-11.28499985	11.28499985	0	0	0	1.0
[LeftUpLeg]
28	82.07800293	-67.51699829	-15.99599934	-32.50824356	0.9725187421	7.397046089	1.0
29	82.07800293	-67.51699829	-15.99599934	-28.94692039	0.8800029755	6.483323574	1.0
30	82.07800293	-67.51699829	-15.99599934	-25.3128376	0.571876049	5.24270916	1.0
[LeftLeg]
28	0	-443.7049866	2.845999956	96.30545044	8.055429459	-7.612416267	1.0
29	0	-443.7049866	2.845999956	98.43689728	6.926106453	-7.821980953	1.0
30	0	-443.7049866	2.845999956	99.90805817	5.197046757	-6.323140144	1.0
[LeftFoot]
28	0	-444.2789917	-29.8219986	-48.51638794	0.9413275719	9.959352493	1.0
29	0	-444.2789917	-29.8219986	-45.25980377	2.158875465	8.651929855	1.0
30	0	-444.2789917	-29.8219986	-44.51049805	1.971777797	6.7747612	1.0
[LeftToeBase]
28	0	-87.28699493	107.1060028	-46.78401947	-1.418170882e-06	-6.633973157e-07	1.0
29	0	-87.28699493	107.1060028	-49.18453598	1.262006606e-07	3.578687142e-07	1.0
30	0	-87.28699493	107.1060028	-49.4860611	-2.911403101e-07	-5.162783054e-07	1.0
[RightUpLeg]
28	-82.07800293	-67.51699829	-15.99599934	-108.2529068	-3.735370636	-3.887441635	1.0
29	-82.07800293	-67.51699829	-15.99599934	-103.3262482	-3.021916151	-2.805498362	1.0
30	-82.07800293	-67.51699829	-15.99599934	-98.28440857	-2.139232397	-1.923399448	1.0
[RightLeg]
28	0	-443.7049866	2.861999989	84.35016632	-7.090277672	0.1970753372	1.0
29	0	-443.7049866	2.861999989	84.0046463	-5.674572468	0.1013789698	1.0
30	0	-443.7049866	2.861999989	82.89433289	-4.089607716	-0.08271710575	1.0
[RightFoot]
28	0	-444.2770081	-29.83799934	1.117948771	0.9132189751	-1.430731535	1.0
29	0	-444.2770081	-29.83799934	1.883650184	0.9923664927	-1.403113723	1.0
30	0	-444.2770081	-29.83799934	3.057456732	0.6726071239	-0.9664674401	1.0
[RightToeBase]
28	0	-87.28699493	107.1060028	-1.515573604e-05	-2.909377805e-08	-1.999551955e-07	1.0
29	0	-87.28699493	107.1060028	-1.515573604e-05	-2.909377805e-08	-1.999551955e-07	1.0
30	0	-87.28699493	107.1060028	-1.515573604e-05	-2.909377805e-08	-1.999551955e-07	1.0
[EndOfFile]
